<?xml version="1.0" encoding="UTF-8" standalone="no"?>
<!DOCTYPE svg PUBLIC "-//W3C//DTD SVG 1.1//EN" "http://www.w3.org/Graphics/SVG/1.1/DTD/svg11.dtd">
<svg width="100%" height="100%" viewBox="0 0 1200 356" version="1.1" xmlns="http://www.w3.org/2000/svg" xmlns:xlink="http://www.w3.org/1999/xlink" xml:space="preserve" xmlns:serif="http://www.serif.com/" style="fill-rule:evenodd;clip-rule:evenodd;stroke-linejoin:round;stroke-miterlimit:2;">
    <g transform="matrix(1,0,0,0.860993,0,49.486586)">
        <g id="Layer-1" serif:id="Layer 1">
            <rect x="0" y="-57.476" width="1200" height="413.476" style="fill:white;"/>
        </g>
    </g>
    <g id="_-Group-" serif:id="&lt;Group&gt;" transform="matrix(0.921922,0,0,0.921922,46.840054,14.294944)">
        <path id="_-Path-" serif:id="&lt;Path&gt;" d="M178.9,-0.8C168.9,24.533 158.367,50 147.3,75.6L132.6,109.5L117.6,75.6C106.333,50 95.6,24.533 85.4,-0.8L2.4,-0.8L2.4,5.9C11.7,5.9 19.2,13.5 19.2,23C17.933,40.467 16.4,58 14.6,75.6L9.2,129C6.6,154.6 3.5,180.1 0,205.4L26.5,205.4C28.1,180.1 30.2,154.6 32.8,129L40.9,48.5C52.633,72.967 63.967,97.567 74.9,122.3L77.9,129C89.233,154.6 100,180.067 110.2,205.4L118.2,205.4C128.2,180.1 138.7,154.6 149.8,129L154.6,118.1C165.267,93.367 176.367,68.767 187.9,44.3L196.5,129C199.1,154.6 201.167,180.067 202.7,205.4L263.7,205.4C260.2,180.1 257.1,154.6 254.5,129L249.1,75.6C246.5,50 244.4,24.6 242.9,-0.8L178.9,-0.8Z" style="fill:rgb(37,43,107);fill-rule:nonzero;"/>
        <path id="_-Path-1" serif:id="&lt;Path&gt;" d="M452.2,184.9C458.8,172.233 465.933,159.5 473.6,146.7L547.6,23.5L547.6,18.3L384.8,18.3L384.8,56.2L391.3,56.2C391.3,47.1 398.2,39.6 407,39.1C412.067,38.9 417.133,38.8 422.2,38.8L474.7,38.8C468.233,51.2 461.233,63.667 453.7,76.2L379.3,200.2L379.3,205.4L555,205.4L555,183.4C542.6,184.4 530.133,184.9 517.6,184.9L452.2,184.9Z" style="fill:rgb(37,43,107);fill-rule:nonzero;"/>
        <path id="_-Path-2" serif:id="&lt;Path&gt;" d="M753.2,205.4C753.733,205.333 754.267,205.3 754.8,205.3C753.8,192.6 753.2,180 753.2,167.2L753.2,120.8L826,120.8L826,167.2C826,180 825.5,192.733 824.5,205.4L880.5,205.4C879.5,192.733 879,180 879,167.2L879,56.5C879,43.7 879.5,30.967 880.5,18.3L809.2,18.3L809.2,24.2L810.7,24.2C818.7,24.2 825.1,30.5 825.6,38.5C825.867,44.5 826,50.5 826,56.5L826,100.3L753.2,100.3L753.2,56.5C753.2,43.7 753.7,30.967 754.7,18.3L683.4,18.3L683.4,24.2L684.9,24.2C692.8,24.2 699.2,30.5 699.8,38.4C700,44.4 700.2,50.4 700.2,56.5L700.2,186.1C692.8,186.967 685.267,187.433 677.6,187.5C669.4,187.5 661.3,186.8 653.4,185.5C631,181.2 627.4,160.2 627.4,147.1L627.4,55.5C627.4,43.033 627.9,30.633 628.9,18.3L557.6,18.3L557.6,24.2L559,24.2C566.9,24.2 573.4,30.5 574,38.4C574.2,44.4 574.3,50.433 574.3,56.5L574.3,138.2C574.3,156.6 580.1,197.2 630,204.5C645.5,206.8 661.4,208 677.6,208C703,208 728.3,207.1 753.2,205.4Z" style="fill:rgb(37,43,107);fill-rule:nonzero;"/>
        <path id="_-Compound-Path-" serif:id="&lt;Compound Path&gt;" d="M1120.2,111.9L1120.2,111.9ZM1010.9,207.9C956.6,207.9 901.6,175.6 901.6,111.9C901.6,48.1 956.6,15.7 1010.9,15.7C1065.2,15.7 1120.2,48.1 1120.2,111.8C1120.2,175.6 1065.2,207.9 1010.9,207.9ZM1066.9,111.9C1066.9,77.1 1052.4,36.2 1010.9,36.2C969.4,36.2 954.9,77.1 954.9,111.9C954.9,146.5 969.4,187.4 1010.9,187.4C1052.4,187.4 1066.9,146.5 1066.9,111.9Z" style="fill:rgb(37,43,107);"/>
        <path id="_-Path-3" serif:id="&lt;Path&gt;" d="M354,56.5C354,43.7 354.5,30.967 355.5,18.3L282.2,18.3L282.2,25L283.9,25C293.2,25 300.7,32.6 300.7,42.1C300.833,46.9 300.9,51.7 300.9,56.5L300.9,167.2C300.9,180 300.433,192.733 299.5,205.4L355.5,205.4C354.5,192.733 354,180 354,167.2L354,56.5Z" style="fill:rgb(37,43,107);fill-rule:nonzero;"/>
        <path id="_-Path-4" serif:id="&lt;Path&gt;" d="M101.9,308.1C249.4,275.1 402.8,257.6 560.2,257.6C782.5,257.6 996.9,290.9 1198.9,352.8C1199.7,353.1 1200.1,353.9 1200,354.7C1199.8,355.5 1199,356.1 1198.1,355.9C990.5,321.7 777.8,302.1 561.2,298.3C406.6,295.6 253.7,301 102.9,314.1C101.4,314.3 100,313.3 99.7,311.8C99.3,310.2 100.3,308.5 101.9,308.1Z" style="fill:rgb(196,35,50);fill-rule:nonzero;"/>
    </g>
</svg>
